<svg width="24" height="24" viewBox="0 0 24 24" fill="none" xmlns="http://www.w3.org/2000/svg">
<path fill-rule="evenodd" clip-rule="evenodd" d="M23.0845 11.9998C23.0845 12.2879 22.9195 12.5506 22.6599 12.6755L8.34097 19.5698C8.0639 19.7032 7.73347 19.654 7.50734 19.4456C7.28121 19.2372 7.20521 18.9119 7.3156 18.6249L9.8637 11.9998L7.3156 5.37474C7.20521 5.08772 7.28121 4.7624 7.50734 4.554C7.73347 4.3456 8.0639 4.29635 8.34097 4.42976L22.6599 11.324C22.9195 11.449 23.0845 11.7117 23.0845 11.9998ZM11.1824 12.7498L9.39472 17.3977L19.048 12.7498H11.1824ZM19.048 11.2498L9.39472 6.60193L11.1824 11.2498H19.048Z" fill="white"/>
</svg>
