<svg width="24" height="24" viewBox="0 0 24 24" fill="none" xmlns="http://www.w3.org/2000/svg">
<path fill-rule="evenodd" clip-rule="evenodd" d="M23.0845 12C23.0845 12.2882 22.9195 12.5508 22.6599 12.6758L8.34097 19.5701C8.0639 19.7035 7.73347 19.6542 7.50734 19.4458C7.28121 19.2374 7.20521 18.9121 7.3156 18.6251L9.8637 12L7.3156 5.37499C7.20521 5.08797 7.28121 4.76265 7.50734 4.55424C7.73347 4.34584 8.0639 4.2966 8.34097 4.43L22.6599 11.3243C22.9195 11.4493 23.0845 11.7119 23.0845 12ZM11.1824 12.75L9.39472 17.3979L19.048 12.75H11.1824ZM19.048 11.25L9.39472 6.60217L11.1824 11.25H19.048Z" fill="white"/>
</svg>
